<?xml version="1.0"?>
<svg width="119" height="44" xmlns="http://www.w3.org/2000/svg" xmlns:svg="http://www.w3.org/2000/svg">
 <title>Combined Shape</title>

 <g class="layer">
  <title>Layer 1</title>
  <g fill="none" fill-rule="evenodd" id="Page-1">
   <g fill="#000" fill-rule="nonzero" id="Group-21">
    <path d="m15.215,25.004444c1.278483,-0.008965 3.985327,-0.001854 4.531682,-0.000287l0.097318,0.000287l0.057,0.052l0,0.496c0,0.137 -0.077,0.205 -0.229,0.205c-0.746,0.035 -0.899,0.109 -1.172,0.502c-0.149,0.214 -0.443,0.675 -0.748,1.193l0,0l-2.618,4.896c0,0 -0.025408,0.053086 -0.0726,0.151495l3.1986,6.549505l0.194,0.053l5.04,-11.961c0.175,-0.482 0.148,-0.824 -0.077,-1.025c-0.226,-0.195 -0.385,-0.312 -0.969,-0.336l-0.473,-0.023c-0.058,0 -0.113,-0.021 -0.166,-0.061c-0.052,-0.037 -0.079,-0.086 -0.079,-0.145l0,-0.498l0.072,-0.051l5.694,0l0,0l0.058,0.051l0,0.498c0,0.135 -0.077,0.203 -0.229,0.203c-0.746,0.033 -1.299,0.195 -1.657,0.484c-0.359,0.291 -0.639,0.691 -0.84,1.213c0,0 -4.635,10.608 -6.221,14.135c-0.607,1.156 -1.204,1.05 -1.729,-0.033c-0.657353,-1.353826 -2.022315,-4.339651 -3.025066,-6.547101c-1.072416,2.211776 -2.540744,5.21004 -3.268934,6.560101c-0.708,1.231 -1.291,1.07 -1.755,0.032c-1.611,-3.801 -4.919,-10.475 -6.476,-14.215c-0.288,-0.689 -0.505,-1.131 -0.71,-1.306c-0.206,-0.173 -0.634,-0.277 -1.285,-0.312c-0.239,-0.026 -0.358,-0.084 -0.358,-0.178l0,0l0,-0.521l0.058,-0.051c0.904118,-0.005117 4.769196,-0.001505 5.88643,-0.000332l0.30357,0.000332l0.058,0.051l0,0.496c0,0.137 -0.087,0.203 -0.258,0.203l0,0l-0.646,0.027c-0.554,0.023 -0.831,0.189 -0.831,0.496c0,0.143 0.058,0.376 0.187,0.688c1.24,3.022 5.523,12.053 5.523,12.053l0,0l0.157,0.041l2.760839,-5.506611c-0.337571,-0.745773 -0.552839,-1.223389 -0.552839,-1.223389l-1.898,-3.73c0,0 -0.367,-0.746 -0.492,-0.994c-0.834,-1.652 -0.816,-1.74 -1.659,-1.852c-0.236,-0.031 -0.358,-0.061 -0.358,-0.178l0,-0.523l0.071,-0.051l0.327923,-0.000373c1.631881,-0.001627 4.584077,-0.001627 4.584077,-0.001627l0.13,0.043l0,0.521c0,0.119 -0.085,0.18 -0.258,0.18l-0.356,0.051c-0.9,0.07 -0.753,0.438 -0.155,1.629l1.821,3.724556l2.014,-4.016556c0.312929,-0.6825 0.275786,-0.889903 0.157592,-1.052161l-0.028592,-0.036839c-0.08,-0.095 -0.348,-0.249 -0.931,-0.272l0,0l-0.229,-0.025c-0.058,0 -0.112,-0.02 -0.165,-0.059c-0.052,-0.037 -0.078,-0.085 -0.078,-0.146l0,0l0,-0.496l0.071,-0.051zm95.143,0.115c0.362,0 0.493,0.261 0.7,0.781l5.33,14.092c0.365,1.015 0.886,1.404 1.926,1.508l0.285,0.025c0.131,0 0.261,0.077 0.261,0.209l0,0.492l-0.078,0.053c0,0 -1.831698,-0.048491 -2.879257,-0.052708l-0.137743,-0.000292c-0.91,0 -3.459,0.053 -3.459,0.053l-0.024,-0.053l0,-0.492c0,-0.132 0.052,-0.209 0.185,-0.209l0.728,-0.053c0.987,-0.077 1.353,-0.391 1.092,-1.117l-1.586,-4.396l-5.41,0c-0.624,0 -0.78,0.104 -0.909,0.44l-1.509,3.771c-0.26,0.654 0.078,1.227 1.04,1.305l0.754,0.053c0.104,0 0.208,0.078 0.208,0.207l0,0.494l-0.052,0.053c0,0 -2.611814,-0.048844 -3.372835,-0.052752l-0.085165,-0.000248c-0.677,0 -2.341,0.053 -2.341,0.053l-0.053,-0.053l0,-0.494c0,-0.129 0.078,-0.207 0.209,-0.207c1.145,-0.078 1.793,-0.287 2.521,-1.951l5.771,-13.521c0.285,-0.676 0.494,-0.937 0.886,-0.937zm-13.510074,5.147688l0.117074,0.000312c0.701,0 2.705,-0.052 2.705,-0.052l0.024,0.052l0,0.572c0,0.078 -0.054,0.13 -0.156,0.13l-0.546,0.053c-0.807,0.077 -1.092,0.286 -1.092,0.807l0.003,8.658c0,0.572 0.26,0.91 1.092,0.988l0.546,0.053c0.078,0 0.156,0.051 0.156,0.155l0,0.546l-0.026,0.053c0,0 -1.800446,-0.048291 -2.664265,-0.052681l-0.116735,-0.000319c-0.729,0 -2.756,0.053 -2.756,0.053l-0.053,-0.053l0,-0.546c0,-0.104 0.078,-0.155 0.182,-0.155l0.521,-0.053c0.857,-0.078 1.118,-0.494 1.118,-0.988l0,-8.658c0,-0.57 -0.313,-0.729 -1.118,-0.805l-0.521,-0.054c-0.104,0 -0.182,-0.024 -0.182,-0.104l0,-0.599l0.026,-0.052c0,0 1.871516,0.047381 2.740926,0.051688zm-46.628261,0l0.117335,0.000312c0.702,0 2.704,-0.052 2.704,-0.052l0.026,0.052l0,0.572c0,0.078 -0.052,0.13 -0.156,0.13l-0.546,0.053c-0.806,0.077 -1.092,0.286 -1.092,0.807l0,8.658c0,0.572 0.26,0.91 1.092,0.988l0.546,0.053c0.078,0 0.156,0.051 0.156,0.155l0,0.546l-0.026,0.053c0,0 -1.800446,-0.048291 -2.665134,-0.052681l-0.116866,-0.000319c-0.728,0 -2.756,0.053 -2.756,0.053l-0.052,-0.053l0,-0.546c0,-0.104 0.078,-0.155 0.182,-0.155l0.52,-0.053c0.858,-0.078 1.118,-0.494 1.118,-0.988l0,-8.658c0,-0.57 -0.312,-0.729 -1.118,-0.805l-0.52,-0.054c-0.104,0 -0.182,-0.024 -0.182,-0.104l0,-0.599l0.026,-0.052c0,0 1.871517,0.047381 2.742665,0.051688zm-21.689999,0l0.117334,0.000312c0.702,0 2.704,-0.052 2.704,-0.052l0.026,0.052l0,0.572c0,0.078 -0.052,0.13 -0.156,0.13l-0.546,0.053c-0.806,0.077 -1.092,0.286 -1.092,0.807l0,8.658c0,0.572 0.26,0.91 1.092,0.988l0.546,0.053c0.078,0 0.156,0.051 0.156,0.155l0,0.546l-0.026,0.053c0,0 -1.800446,-0.048291 -2.665134,-0.052681l-0.116866,-0.000319c-0.728,0 -2.756,0.053 -2.756,0.053l-0.052,-0.053l0,-0.546c0,-0.104 0.078,-0.155 0.182,-0.155l0.52,-0.053c0.858,-0.078 1.118,-0.494 1.118,-0.988l0,-8.658c0,-0.57 -0.313,-0.729 -1.118,-0.805l-0.52,-0.054c-0.104,0 -0.182,-0.024 -0.182,-0.104l0,-0.599l0.026,-0.052c0,0 1.871517,0.047381 2.742666,0.051688zm41.043549,0l3.935785,0.000312c0.78,0 2.627,-0.052 2.627,-0.052l0.054,0.052c0.024,1.118 0.206,2.134 0.39,3.121l-0.648,0.104c-0.285,-0.963 -0.779,-2.34 -2.443,-2.34l-2.08,0c-0.494,0 -0.754,0.182 -0.754,0.623l0,3.771l1.949,0c0.729,0 0.91,-0.312 1.015,-0.832l0.155,-0.546c0,-0.078 0.053,-0.131 0.156,-0.131l0.44,0c0.054,0 0.054,0.027 0.054,0.078c-0.054,0.571 -0.156,1.301 -0.156,1.925c0,0.649 0.104,1.196 0.156,1.794l-0.054,0.053l-0.44,0c-0.129,0 -0.184,-0.053 -0.184,-0.131l-0.13,-0.571c-0.104,-0.521 -0.338,-0.807 -1.017,-0.807l-1.948,0l0,3.979c0,0.492 0.283,0.986 0.754,0.986l2.47,0c1.326,0 2.056,-0.832 2.366,-2.186l0.648,0.078l-0.521,2.989l-0.052,0.052c0,0 -1.534,-0.052 -2.314,-0.052l-4.549,0.005c-0.78,0 -2.573,0.053 -2.573,0.053l-0.027,-0.053l0,-0.572c0,-0.051 0.027,-0.129 0.156,-0.129l0.6,-0.053c0.807,-0.078 1.041,-0.598 1.041,-1.117l0,-8.58c0,-0.6 -0.312,-0.703 -1.041,-0.754l-0.6,-0.054c-0.156,-0.024 -0.156,-0.077 -0.156,-0.104l0,-0.599l0.027,-0.052c0,0 1.846915,0.047381 2.693215,0.051688zm-33.287581,0.000026l0.112366,0.000286c0.729,0 2.366,-0.052 2.366,-0.052l0.026,0.052l0,0.572c0,0.078 -0.052,0.104 -0.156,0.13l-0.286,0.053c-0.806,0.155 -1.092,0.286 -1.092,0.807l0,3.927c0.858,0 1.352,-0.44 2.496,-1.664c1.04,-1.146 1.846,-2.104 1.846,-2.601c0,-0.209 -0.234,-0.441 -0.754,-0.521c-0.104,-0.024 -0.156,-0.052 -0.156,-0.13l0,-0.6l0.026,-0.024c0,0 2.106,0.052 2.86,0.052c0.676,0 1.82,-0.052 1.82,-0.052l0.078,0.024l0,0.6c0,0.078 -0.078,0.13 -0.208,0.13c-1.014,0.078 -1.716,0.13 -2.652,1.196l-2.236,2.572c-0.442,0.47 -0.598,0.754 -0.598,0.963c0,0.156 0.104,0.285 0.234,0.441l3.926,4.732c0.312,0.363 0.936,0.52 1.456,0.623l0.13,0.025c0.078,0.025 0.182,0.077 0.182,0.155l0,0.546l-0.078,0.026c0,0 -1.22065,-0.023031 -1.971195,-0.02574l-0.134805,-0.00026c-0.65,0 -1.586,0.026 -1.586,0.026l-0.026,-0.026l0,-0.312c0,-0.339 -0.026,-0.623 -0.39,-1.039l-2.886,-3.589c-0.39,-0.521 -0.806,-0.649 -1.378,-0.649l0,3.853c0,0.572 0.338,0.858 1.092,0.988l0.286,0.053c0.078,0.025 0.156,0.051 0.156,0.155l0,0.546l-0.026,0.053c0,0 -1.470116,-0.047567 -2.288076,-0.052575l-0.129924,-0.000425c-0.728,0 -2.86,0.053 -2.86,0.053l-0.052,-0.053l0,-0.546c0,-0.104 0.078,-0.155 0.182,-0.155l0.52,-0.053c0.78,-0.078 1.118,-0.494 1.118,-0.988l0,-8.658c0,-0.57 -0.286,-0.729 -1.118,-0.805l-0.52,-0.054c-0.104,0 -0.182,-0.024 -0.182,-0.104l0,-0.599l0.026,-0.052c0,0 1.950639,0.047577 2.825634,0.051714zm24.323366,-0.050714c3.69,0 4.366,1.819 4.366,3.173c0,1.561 -0.754,4.004 -4.444,4.004c-0.65,0 -1.17,-0.053 -1.639,-0.26l0,3.482c0,0.571 0.312,0.703 1.145,0.832l0.521,0.078c0.104,0.025 0.183,0.053 0.183,0.155l0,0.546l-0.024,0.053c0,0 -1.896118,-0.048291 -2.769503,-0.052681l-0.117497,-0.000319c-0.728,0 -2.678,0.053 -2.678,0.053l-0.026,-0.053l0,-0.546c0,-0.104 0.052,-0.13 0.156,-0.155l0.546,-0.078c0.806,-0.104 1.066,-0.338 1.066,-0.832l-0.003,-8.735c0,-0.806 -0.338,-0.832 -1.56,-0.91c-0.156,0 -0.182,-0.077 -0.182,-0.13l0,-0.598l0.052,-0.026c0.39,0 1.924,0.052 2.678,0.052c0.728,0 1.768,-0.052 2.73,-0.052zm21.249,0.052c0.492,0 2.756,-0.052 3.432,-0.052c4.342,0 6.475,2.704 6.475,6.162c0,4.551 -3.225,5.901 -6.109,5.901c-1.970526,0 -2.890072,-0.047567 -3.666725,-0.052575l-0.128275,-0.000425c-0.781,0 -2.758,0.053 -2.758,0.053l-0.025,-0.053l0,-0.546c-0.003,-0.074 0.05,-0.152 0.153,-0.152l0.598,-0.053c0.781,-0.078 1.041,-0.312 1.041,-1.117l0,-8.58c0,-0.678 -0.184,-0.678 -1.041,-0.754l-0.57,-0.054c-0.104,0 -0.184,-0.052 -0.184,-0.13l0,-0.572l0.025,-0.052c0,0 2.289,0.052 2.758,0.052zm2.678,0.702c-1.014,0 -1.664,0.156 -1.664,0.808l0,8.58c0,0.726 0.181,1.17 2.158,1.17c2.859,0 4.473,-1.064 4.473,-4.707c0,-2.703 -0.599,-5.851 -4.967,-5.851zm-24.083,0.001c-1.249,0 -1.561,0.234 -1.561,0.91l0.001,4.524c0.52,0.209 1.17,0.234 1.69,0.234c1.561,0 2.312,-0.938 2.312,-2.938c0,-2.236 -1.014,-2.73 -2.442,-2.73zm49.308,-3.043l-0.052,0l-2.6,6.604c-0.104,0.262 0.077,0.338 0.649,0.338l4.525,0l0,-0.001l-2.522,-6.941z" id="Combined-Shape"/>
   </g>
  </g>
  <path d="m1.928578,23.357145c1.265952,0 2.182623,-0.002617 3.056952,0c0.858869,0.002571 1.778352,0.138773 2.657333,0.142857c0.870776,0.004045 1.770297,0.012941 2.635239,0.082096c0.935176,0.07477 1.834095,0.06076 2.679238,0.06076c0.897714,0 1.785523,0 2.685523,0c0.800001,0 1.708168,0 2.568453,0c0.906977,0 1.860119,0 2.723215,0c0.890047,0 1.794237,0 2.732141,0c0.749144,0 1.647005,0.007414 2.644548,-0.000023c0.817236,-0.006094 1.719992,-0.109482 2.605453,-0.139858c0.896715,-0.030764 1.778761,-0.002975 2.661808,-0.002975c0.862286,0 1.803684,-0.029554 2.62281,0.008167c0.900799,0.041483 1.801685,0.133202 2.759476,0.134689c0.869717,0.00135 1.750404,0 2.628952,0c0.957905,0 1.790199,-0.044197 2.710476,0.040573c0.816734,0.075233 1.771023,0.234999 2.631359,0.245142c0.867668,0.010231 1.770992,0.078333 2.625595,0.148001c0.919811,0.074984 1.76474,0.207771 2.680573,0.275429c0.863564,0.063795 1.782715,0.005051 2.654118,0.005142c0.9095,0.000095 0.250175,0.398987 -0.637787,0.585714c-0.864136,0.181717 -1.752892,0.2801 -2.578426,0.385714c-0.82634,0.105717 -1.758995,0.163836 -2.59219,0.171238c-0.940544,0.008356 -1.881813,0.035685 -2.726479,0.114668c-0.857468,0.080179 -1.856846,0.186853 -2.576382,0.256952c-1.046337,0.101934 -1.83535,0.176956 -2.658878,0.242214c-0.825653,0.065426 -1.908039,0.085705 -2.827858,0.132286c-0.83139,0.042103 -1.710613,0.133842 -2.439667,0.179667c-1.110558,0.069803 -1.851196,0.070648 -2.936834,0.074429c-0.703049,0.002447 -1.76314,0.032961 -2.485786,0.071404c-1.053894,0.056065 -1.714281,0.069941 -2.691738,0.071428c-0.836187,0.001272 -1.827583,-0.016407 -2.608547,0.008167c-0.997869,0.031401 -1.845358,0.120108 -2.637215,0.131714c-0.990828,0.014523 -1.782238,0.002977 -2.793285,0.002977c-0.962667,0 -1.703738,0 -2.611929,0c-0.857572,0 -1.868595,0 -2.787547,0c-0.852286,0 -1.744252,-0.012293 -2.632905,0.000023c-0.859104,0.011906 -1.793801,0.134155 -2.678286,0.142834c-0.844079,0.008282 -1.746683,-0.199362 -2.619048,0.005142c-0.487181,0.114208 0.39919,0.289286 1.290833,0.381214c0.916188,0.094458 1.838159,0.159994 2.623834,0.185072c0.942954,0.030098 1.738307,0.095339 2.752571,0.130857c0.711354,0.024912 1.752324,0.048452 2.576762,0.112642c0.851977,0.066334 1.732946,0.144808 2.717596,0.227287c0.738054,0.061823 1.739889,0.079203 2.738785,0.141403c0.715406,0.044548 1.712931,0.157612 2.547619,0.244953c0.804167,0.084146 1.797752,0.187677 2.579239,0.257143c0.992352,0.088209 1.673485,0.141069 2.698668,0.228571c0.984148,0.084 1.740051,0.156151 2.745714,0.257143c0.845226,0.084881 1.656214,0.156092 2.588953,0.303047c0.834793,0.131525 1.77602,0.29163 2.651047,0.396954c0.829353,0.099827 1.696991,0.188301 2.629143,0.34057c0.82336,0.134499 1.699383,0.285995 2.6665,0.402287c0.958244,0.115225 1.845245,0.230951 2.678787,0.242857c0.854126,0.012199 1.798141,-0.001394 2.621212,0c0.878838,0.001488 1.770119,0.131212 2.618073,0.223429c0.908264,0.098776 1.794792,0.184853 2.763832,0.205143c0.834461,0.017471 1.441532,0.133785 0.584785,0.344143c-0.884296,0.217123 -1.774517,0.385321 -2.593761,0.496428c-0.799664,0.108452 -1.718021,0.245689 -2.725357,0.336975c-0.633404,0.0574 -1.728935,0.12307 -2.631832,0.179596c-0.692112,0.043331 -1.6343,0.099003 -2.580143,0.157143c-0.913967,0.056179 -1.767899,0.122097 -2.572571,0.159241c-0.961933,0.044403 -1.720695,0.038425 -2.876785,0.091141c-0.777763,0.035465 -1.711353,0.085724 -2.583668,0.091835c-0.825245,0.005783 -1.744358,-0.01749 -2.66362,0.003616c-0.885452,0.020332 -1.741308,0.120071 -2.697453,0.195503c-0.664698,0.052437 -1.646282,0.082985 -2.638857,0.087238c-0.877972,0.003765 -1.737907,0.026897 -2.662096,0.082092c-0.861546,0.051453 -1.719288,0.036434 -2.576,0.063812c-1.001274,0.031998 -1.846838,0.205742 -2.663261,0.266975c-1.034912,0.077618 -1.808383,0.114395 -2.706643,0.215691c-0.870094,0.098122 -1.688601,0.188389 -2.586095,0.314285c-0.972487,0.136417 -1.926969,0.210827 -2.734477,0.342857c-0.875267,0.143108 -1.783612,0.307735 -2.631214,0.377548c-0.841553,0.069317 -1.82402,0.11628 -2.680452,0.185715c-0.128196,0.010395 0.75431,0.007904 1.508167,0.008163c0.941571,0.000324 1.85024,0.002155 2.818357,0.051025c0.815518,0.041168 1.684534,0.111496 2.613119,0.160286c0.720007,0.03783 1.690737,0.059822 2.652215,0.078022c0.934145,0.017681 1.824307,0.053955 2.659047,0.110859c0.956335,0.065193 1.671381,0.130974 2.745119,0.163715c0.735147,0.022415 1.662579,0.053745 2.5755,0.099998c0.862936,0.04372 1.664467,0.049835 2.709667,0.111141c0.975471,0.057213 1.754999,0.081776 2.601524,0.082096c0.919428,0.000347 1.833715,-0.001297 2.633713,0c0.917267,0.001488 1.878855,0.072384 2.795238,0.119049c0.828941,0.042213 1.782955,0.021816 2.714287,0.023808c0.69643,0.001492 1.73032,0.049168 2.489071,0.092476c0.989017,0.05645 1.87048,0.026531 2.69912,0.062572c0.860863,0.037441 1.837093,0.197571 2.716572,0.249714c0.880024,0.052177 1.854069,0.067947 2.509521,0.105907c1.014648,0.058762 1.963993,0.074406 2.737526,0.175236c0.929157,0.121113 1.896896,0.284195 2.752308,0.364475c0.838078,0.078655 1.796478,0.0186 2.614357,0.276096c0.751301,0.236534 -0.042751,0.852631 -0.93219,1.04343c-0.845894,0.181458 -1.80085,0.254448 -2.556,0.369331c-0.9389,0.142838 -1.741425,0.220726 -2.771713,0.253239c-0.742641,0.023434 -1.734978,0.051533 -2.566002,0.089619c-1.041668,0.047741 -1.853649,0.048763 -2.835426,0.084572c-0.758873,0.027679 -1.484821,0.082355 -2.499241,0.115429c-0.95303,0.031071 -1.73801,0.092625 -2.681736,0.12912c-0.790401,0.030563 -1.769119,0.017086 -2.606739,0.017357c-0.985714,0.00032 -1.791241,0.006626 -2.785618,0.06076c-0.69165,0.037655 -1.770107,0.070786 -2.507811,0.094097c-0.928738,0.029346 -1.856638,0.106735 -2.785524,0.173069c-0.74262,0.053032 -1.855827,0.096012 -2.583666,0.100002c-1.027914,0.005634 -1.818048,0.000641 -2.714239,0.000641c-0.906857,0 -1.725309,0 -2.776546,0c-0.722572,0 -1.776548,0 -2.593929,0c-0.945714,0 -1.723453,0 -2.622809,0c-0.985001,0 -1.763287,0 -2.711191,0c-0.857238,0 -1.89058,0.120018 -2.590095,-0.402046c-0.731228,-0.545731 -1.142176,-1.337578 -1.624834,-2.101025c-0.477577,-0.755409 -1.126482,-1.541355 -1.0825,-2.423595c0.041877,-0.840027 0.983296,-1.346832 1.669524,-1.902287c0.645017,-0.522095 1.499146,-1.098709 2.185333,-1.450094c0.80871,-0.414129 1.588878,-0.780634 2.505072,-1.143572c0.789824,-0.312878 1.646871,-0.500187 2.548048,-0.662453c0.776262,-0.139772 1.722208,-0.272331 2.710881,-0.319689c0.706482,-0.03384 1.833334,-0.023809 2.613142,-0.023809c0.784382,0 1.746643,-0.000072 2.512072,0c0.994215,0.000095 1.825453,-0.007067 2.866953,0.031618c0.814791,0.030264 1.817307,0.089622 2.615833,0.107618c0.789288,0.017788 1.749544,0.059956 2.492714,0.096096c1.071047,0.052086 1.760344,0.034979 2.742216,0.151785c1.066378,0.12686 1.754709,0.258638 2.774023,0.35574c0.798149,0.076033 1.695076,0.17853 2.621143,0.233334c0.775696,0.045906 1.721798,0.068514 2.666668,0.166666c0.830593,0.086283 1.679882,0.204771 2.619045,0.380953c0.854549,0.160309 1.709145,0.358286 2.604,0.647429l0.5215,0.603237l0.017357,0.888382" fill="#ff0000" id="svg_2" stroke="#ff0000" stroke-width="5"/>
  <text fill="#000000" font-family="serif" font-size="24" id="svg_3" stroke="#ff0000" stroke-width="0" text-anchor="middle" transform="rotate(-13.5414, 33.3572, 15.9655)" x="33.357151" xml:space="preserve" y="24.071431">Ryan</text>
 </g>
</svg>