<svg id="Layer_1" data-name="Layer 1" xmlns="http://www.w3.org/2000/svg" viewBox="0 0 479.47 480"><defs><style>.cls-1{fill:#fff;}</style></defs><title>battlenet-logo</title><path class="cls-1" d="M431.13,221.52s39.46,2,39.46-21.21c0-30.35-52.54-57.69-52.54-57.69s8.24-17.46,13.36-27.23S451,67.54,452.3,58.87c1.65-10.94-.85-14.38-.85-14.38-3.56,23.44-41.72,90.9-44.73,93.21-37.23-17.47-88.36-22.31-88.36-22.31S268.32,10,221.25,10c-46.68,0-46.45,90.23-46.45,90.23s-13.2-25.58-29.72-25.58c-24.22,0-32.15,36.64-32.15,76.33-47.81,0-88,10.66-91.6,11.68s-14.88,9.25-9.77,8.24c10.47-3.36,59.57-11,102.54-7.23,2.38,37.74,24.42,86.88,24.42,86.88S91.29,319,91.29,367.81c0,12.85,5.59,36.37,39.49,36.37,28.4,0,60.27-17.07,66.29-20.55-5.23,7.5-9.1,21.72-9.1,28.28,0,5.36,3.16,20.55,25.08,20.55,28.12,0,59.53-21.56,59.53-21.56s29.65,49.3,55,71.91C334.45,488.91,341,490,341,490s-25.2-24.26-58.4-86.76c30.86-19.06,63-64,63-64s3.79.12,33.08.12c45.9,0,111.1-9.65,111.1-46.14C489.73,255.55,431.13,221.52,431.13,221.52Zm5.12-22.65c0,13.32-12.66,13.12-12.66,13.12l-9.64.67s-18.29-9.61-29.34-14.11c0,0,17.15-26.48,21.17-33.86C408.83,166.45,436.25,183.63,436.25,198.87Zm-192-135.78c21.56,0,52.34,50.93,52.34,50.93s-48-4.29-87.58,19C210,96.29,222.38,63.09,244.22,63.09Zm-85.51,41.29c6.88,0,13.59,8.32,16.37,15.39,0,4.68,2.42,32,2.42,32l-39.61-1.49C137.89,114.49,151.88,104.38,158.71,104.38Zm-4.06,248.08c-21.64,0-26.13-12.07-26.13-22.93,0-24.57,19.61-58.94,19.61-58.94s22,46.25,60.39,65.78C189.45,347.54,173.75,352.46,154.65,352.46Zm70.27,48.44c-15.19,0-17-9.85-17-12.11,0-7.07,5.51-15.43,5.51-15.43s25.51-17.23,27.15-19.06l18.83,35.15S240.08,400.9,224.92,400.9Zm47.35-19.18a305.73,305.73,0,0,1-16.06-33.05s37.93,2.46,58.32-18.59c-12.69,5.7-33,12.93-56.52,10.74,49.26-43.4,78-74.84,102.3-107.38-2.07-2.5-13.2-10.28-15.93-11.56-14.65,17.65-71.72,78.67-124.54,108.86-66.91-36.48-80.93-143.83-82.38-166.13L174,168.13s-13.75,24.33-13.75,42.26,2.15,18.87,2.15,18.87S162,198,181.25,173.91c14.69,78.2,30,118.28,41.95,142.14,6.06-2.5,17.39-7.53,17.39-7.53s-33.75-97.31-31.88-163.17c15.31-8.16,38-16.6,63.56-16.6,67.3,0,121.4,29,121.4,29L372.5,187.3S353.63,153.13,327,147c14.06,10.51,29.81,24.34,38,44.26-55.78-21.8-123.08-33.32-144.69-35.86-1.87,8-1.64,19.37-1.64,19.37s90.28,16.65,156,54.26C374.14,311.25,284.61,374.38,272.27,381.72Zm85.5-61.45s28-36.79,27.58-85.5c0,0,45.28,28,45.28,55.39C430.63,320.74,357.77,320.27,357.77,320.27Z" transform="translate(-10.25 -10)"/></svg>