<svg id="Layer_1" data-name="Layer 1" xmlns="http://www.w3.org/2000/svg" viewBox="0 0 445.26 445.29"><defs><style>.cls-1{fill:#165105;}.cls-2{fill:#c8e5eb;}.cls-3{fill:#a1c8ce;}.cls-4{fill:#deecf1;}.cls-5{fill:#f0f6f7;}.cls-6{fill:#c7e2e7;}</style></defs><title>lb-1st</title><path class="cls-1" d="M138.24,28.26C116.87,38,106.6,47.36,102.65,60.87c-.61,2.15-.79,3.91-.94,9.37-.17,6.36-.14,6.79.58,7.94a4.66,4.66,0,0,0,1.65,1.61c3.38,1.55,12-.93,18-5.13A44.77,44.77,0,0,0,131,65.14a73,73,0,0,0,6-12.21c1.76-5,3.48-12.21,3.59-15.23a58.9,58.9,0,0,1,.86-6.68c.87-4.27.87-4.31.51-4.31C141.76,26.71,140.11,27.43,138.24,28.26Z" transform="translate(-33.37 -26.71)"/><path class="cls-1" d="M370.09,27.32c.69,2.66,1.76,10.1,1.48,9.92-.9-.54.93,7.75,3.19,14.58,2.59,7.68,6,13.75,10.56,18.49,5.49,5.78,12.32,9.34,18.75,9.81,5.17.39,6.25-.79,6.6-7.11,1.12-19.25-10.12-33-36.52-44.68-2-.9-3.77-1.62-3.91-1.62S370,27,370.09,27.32Z" transform="translate(-33.37 -26.71)"/><path class="cls-1" d="M82.64,40.79c-5.74,10.74-9,19.47-10.34,27.58-.79,4.74-.47,15.8.58,20,1.33,5.6,4.31,11.24,7.36,14.07,1.33,1.23,1.83,1.48,3.09,1.48,3,0,6.53-3.45,9.33-9.16,1.94-4,3.7-10.13,3.42-11.85-.18-.83-.15-1,.18-.54s.35.36.18-.36a31.08,31.08,0,0,1,.1-4.31A49,49,0,0,0,93.67,57.6a123.3,123.3,0,0,0-7.22-16.45l-2-3.73Z" transform="translate(-33.37 -26.71)"/><path class="cls-1" d="M425.79,41.11c-4.81,9-8.29,18.36-9.62,25.68-1.08,6-.83,15.48.54,20.8,1.69,6.57,5.78,13.39,9.34,15.58a5.68,5.68,0,0,0,2.69.76c2.48,0,5-2.7,7.94-8.59,1.65-3.26,3.37-9.37,3.08-10.91-.14-.69-.07-.94.22-.76s.29.11.14-.18a14.19,14.19,0,0,1,.15-4c1.25-9.88-2.27-23-10.2-37.86l-2.26-4.23Z" transform="translate(-33.37 -26.71)"/><path class="cls-1" d="M128.36,74.62c-7.68,2.59-10.77,3.84-15.19,6.14-12.35,6.54-19.89,14.83-22.7,25-.86,3.23-1.68,10.7-1.25,11.71a4.85,4.85,0,0,1,.5,1.76c.07,1.15,2,2.69,3.63,3,1.83.32,7.68-.11,8.9-.65.43-.18.79-.28.79-.21s-1.83,1.51-4,3.19C86.45,134,79.7,142.75,77,153c-.5,1.94-.68,3.8-.68,8.08a53.18,53.18,0,0,0,.29,6.64c.18.79.18.94-.11.54s-.29.07-.15,1.62c.79,7.36,4.71,8.15,14.15,2.8a30.72,30.72,0,0,0,8.73-7.11,54.31,54.31,0,0,0,6.47-12.21c1.25-3.52,2.87-10.88,2.58-12-.14-.61-.07-.79.22-.58s.36,0,.21-.64a22.11,22.11,0,0,1,.29-4.82c.29-2.15.61-6.5.72-9.66.25-6.39.43-8.11.86-8,.61.14,5.06-3.45,7.68-6.21,4.39-4.63,7.65-10.06,11-18.32,2.55-6.25,4-11.63,2.91-11-.36.18.93-4.89,1.94-7.72.61-1.76.61-1.8.29-1.8S131.52,73.54,128.36,74.62Z" transform="translate(-33.37 -26.71)"/><path class="cls-1" d="M377.78,72.86c0,.22,1.22,4.53,2.4,8.58.15.47.08.58-.25.4s-.43.14-.28,1.65c.43,4.13,5.78,16.52,9.58,22.27a55.12,55.12,0,0,0,4.42,5.53c2.73,2.94,8.19,7.32,8.19,6.61,0-.25.07-.36.18-.25s1,15.76,1,18.6c0,1.36.07,1.76.25,1.26s.25-.11.1.89c-.21,2,1.3,9.63,2.81,14.15a52.84,52.84,0,0,0,6.68,13,30.67,30.67,0,0,0,8.72,7.11c5.75,3.23,9.2,4.13,11.46,2.94,1.54-.79,2.69-3.3,2.44-5.31-.11-.83-.07-1.26.07-1s.29-.28.33-1.29,0-3.92.07-6.57a31.93,31.93,0,0,0-3.67-16.27c-3.08-6.11-10.45-14.12-18.67-20.33-4.53-3.41-6.21-4.81-4.13-3.48,1,.64,7.07,1.22,9.23.86,1.65-.29,3.55-1.83,3.63-3s.14-1.19.43-1.47.28-5.25-.29-8.44c-1.36-7.94-4.56-13.76-10.81-19.72-6.5-6.21-17.78-12.1-30.27-15.8-1.44-.43-2.88-.86-3.13-1S377.78,72.72,377.78,72.86Z" transform="translate(-33.37 -26.71)"/><path class="cls-1" d="M58.4,86.87c-2.19,7.32-2.83,9.66-3.62,13.29a67.34,67.34,0,0,0-1.84,18.67c.15,3,.26,5.78.26,6.29a38.84,38.84,0,0,0,3.59,14.18,34.38,34.38,0,0,0,8.87,11c2.19,1.58,3.91,1.83,5.82.86,1.29-.68,3.08-3.45,4.38-6.68,2.12-5.31,2.58-8.65,2.55-17.92,0-4.52-.15-6.1-.79-8.51-2.16-8-6.54-16-14.19-25.79C58.33,85.75,58.65,86.08,58.4,86.87Z" transform="translate(-33.37 -26.71)"/><path class="cls-1" d="M451.4,88.91c-5.17,6.68-6.36,8.26-8.55,11.6-6.71,10.28-9.62,19.15-9.33,28.77,0,2.41.25,4.31.39,4.2s.18.25,0,.76c-.54,2.19,1.79,10.2,4.05,14,1.51,2.48,2.95,3.48,5,3.48s5.07-2.33,8.19-6.18A33.26,33.26,0,0,0,457,135.06c1.79-5.35,2.15-9,2.12-19.64,0-6.32-.18-8-1-12.18-.94-4.81-4.21-16.91-4.57-16.88A20.7,20.7,0,0,0,451.4,88.91Z" transform="translate(-33.37 -26.71)"/><path class="cls-1" d="M39.69,144.4c.18,2.73.33,6,.33,7.36s.07,2.27.18,2.09.21.79.25,2.08c.07,3.23,1.65,11.17,3.19,15.84,3.81,11.7,10.42,19.75,20,24.27,6.64,3.16,9.73,1.48,10.27-5.67.15-1.62.25-5.71.22-9.05,0-5.93,0-6.21-1.19-9.52-3.27-9.55-10.09-17.45-22-25.42-3.09-2.09-11-6.9-11.28-6.9A27.82,27.82,0,0,0,39.69,144.4Z" transform="translate(-33.37 -26.71)"/><path class="cls-1" d="M468.49,141.81c-18.89,11.39-28,21.73-30.23,34.3-.58,3.41-.54,11.46.07,13.11.18.43.14.57-.11.43-.57-.36.47,4.56,1.22,5.85,1.55,2.66,4.53,2.73,9.63.22,8.11-4,14-10.59,17.84-19.9,2.34-5.71,4.78-16,4.39-18.35-.11-.72-.08-1.11.1-.86s.29-.29.29-1.26.22-3.95.47-6.71.5-6,.61-7.11a3.88,3.88,0,0,0-.11-2.05A46.42,46.42,0,0,0,468.49,141.81Z" transform="translate(-33.37 -26.71)"/><path class="cls-1" d="M103.73,163.08c-14.3,15-20.69,28.15-19.9,40.86.11,2.16.29,5.25.36,6.83.25,4.92,2.08,10.23,4,11.49,2.48,1.65,5.32.79,9.91-2.94a32.09,32.09,0,0,0,9.48-12.43A37.53,37.53,0,0,0,110.41,196c.07-1.18.32-4.09.53-6.46a74.16,74.16,0,0,0-.39-15.62c-.54-4.28-2.59-14.73-2.87-14.73A43.46,43.46,0,0,0,103.73,163.08Z" transform="translate(-33.37 -26.71)"/><path class="cls-1" d="M404.07,160.85a97.09,97.09,0,0,0-2.88,25.93c.08,4.16.18,7.54.29,7.47s.22.79.22,1.9a38.44,38.44,0,0,0,3,11.28c2.73,6.07,8.37,12.17,13.68,14.87,3.23,1.61,5.75.75,7.33-2.48,1.94-4,2.55-8.44,2.51-18.39,0-4.7-.14-5.82-1-8.87-2.51-9.16-8.62-18.85-18.17-28.73l-4.6-4.74Z" transform="translate(-33.37 -26.71)"/><path class="cls-1" d="M33.37,190.37c0,.07.65,1.44,1.47,3,1.69,3.41,2.23,4.74,1.8,4.49s-.65,1.4-.22,3.12c1.12,4.34,9.52,16.81,14.8,21.83,4.45,4.28,10.09,8,13.76,9,1.29.36,1.76.57,1.07.47l-4.67-.72a156.84,156.84,0,0,0-17.13-1.26H40.91l1.91,2.95c2.58,4,2.58,4,2.12,3.73-.65-.39-.94,1.47-.47,3,.9,3,9.37,13.5,14.51,18a52,52,0,0,0,10.92,7.36c3.52,1.54,7,2.62,8.69,2.66l1.65,0-1.62.29c-.9.18-4.45.75-7.9,1.29s-6.35,1-6.46,1.11,0,.26.18.4c1,.68,5,5.17,4.41,5s-1,.36-1,1.69,1.9,3.88,5.06,6.72c12.54,11.24,22.66,16.16,33.72,16.26a36.49,36.49,0,0,0,5.39-.25c.68-.14-1.26.61-4.31,1.65-8.47,3-11.13,4-11.13,4.21a14.64,14.64,0,0,0,2.33,1.94c2,1.43,3.67,3,2.41,2.22-.47-.29-1.15.86-1.15,1.94,0,3.56,17.45,13,28.37,15.3a42.51,42.51,0,0,0,16-.14c4.06-1,9.37-3.52,11.09-5.21,1.4-1.44,2-3.3,1.37-4.45-.29-.61-.14-.87,1-1.76a5.34,5.34,0,0,0,1.44-1.3,22.2,22.2,0,0,0-2.09-2.87,35,35,0,0,0-21.83-13.25c-3.2-.54-13.22-.22-17,.54-4.71.93-5.28.93-2.12.1a14.06,14.06,0,0,0,4.38-1.79,4.73,4.73,0,0,0,1.83-4.42c-.18-.64,0-.93.9-1.4.61-.29,1.11-.68,1.11-.82a20.72,20.72,0,0,0-1.26-2.7c-5.85-11.38-15.22-18-28-19.68-4.06-.54-4.56-.68-3.27-1.08a4.48,4.48,0,0,0,3.19-4.23,1.38,1.38,0,0,1,.72-1.33c.83-.25.83-.22-.43-4.1-3.88-11.81-11-19.17-23-23.77-1.48-.54-2.12-.9-1.44-.76a31.18,31.18,0,0,0,5,.29c2.91,0,4.06-.14,5.1-.64,1.4-.72,2.62-2.73,2.33-3.85a.6.6,0,0,1,.51-.82c.82-.22.82-.76.14-4.46A35.53,35.53,0,0,0,64.65,198.2c-5.64-2.84-14.15-5.28-23.92-6.83-3.16-.46-6.1-.93-6.53-1S33.37,190.26,33.37,190.37Z" transform="translate(-33.37 -26.71)"/><path class="cls-1" d="M476.9,190.51a153.39,153.39,0,0,0-16,3c-17.38,4.38-27.33,12.43-31.61,25.57-.93,2.84-2,8.69-1.72,9.16.07.18.5.28.93.32s.58.11.36.22c-.61.21-.57,1.36.07,2.58.9,1.76,2.7,2.37,7.19,2.37a32.71,32.71,0,0,0,5-.29c.62-.17-.46.33-2.37,1.12a39.21,39.21,0,0,0-12.24,7.58,35.49,35.49,0,0,0-9.77,15.76c-1.15,3.63-1.15,3.95-.11,4.38.43.18.61.33.4.33s-.33.43-.18,1.22c.54,2.37,1.47,3.41,3.37,3.84,1.12.25,1.12.25.25.43-.5.11-2.58.47-4.66.79-11.57,1.83-19.86,7.4-25.65,17.2-.89,1.51-1.86,3.31-2.15,4-.5,1.18-.5,1.18.83,1.94.71.43,1.11.79.93.79-.54,0-.61,1.4-.14,2.8s2.72,3.16,4.66,3.48c.79.15,1.4.33,1.3.4a30.76,30.76,0,0,1-4.24-.43c-5.53-.79-14.19-.54-17.74.46-7.76,2.23-14,6.61-19.57,13.65l-1.48,1.87,1.44,1.15c1.22,1,1.4,1.26,1.08,1.83-.61,1.19,0,3,1.36,4.49,1.73,1.69,7,4.2,11.1,5.21a42.46,42.46,0,0,0,15.94.14c10.78-2.3,28.38-11.78,28.38-15.26,0-1-.65-2.27-1.12-2-.18.14-.32.14-.32.07a22.55,22.55,0,0,1,2.69-2.12,18.46,18.46,0,0,0,2.7-2.12,5,5,0,0,0-1.69-.79c-12.54-4.31-15.16-5.24-13.94-5a45,45,0,0,0,11.14-.21c7.47-1.55,15.69-5.68,22.84-11.57,8.65-7.14,11.27-10.52,9.51-12.28-.46-.43-.21-.86,1.84-3.09a18.42,18.42,0,0,0,2.22-2.69c-.14-.07-3.84-.72-12.89-2.16-2.51-.43-2.77-.5-1.4-.53,1.72,0,5.17-1.12,8.65-2.66,5-2.23,11.42-7.26,16.2-12.64,3.74-4.21,8.08-10,8.94-12,.76-1.69.76-3.56,0-3.38-.57.11-.36-.32,2.09-4.16l1.79-2.77-2.58-.11A140.13,140.13,0,0,0,451,231.6c-6.43.93-6.43.93-4.16.32,3.34-.93,8.76-4.31,13.1-8.26,6.93-6.25,16.77-21.73,15.91-25-.07-.36-.28-.54-.46-.44-.43.26.1-1.07,1.83-4.52a14.35,14.35,0,0,0,1.36-3.2C478.55,190.37,477.8,190.37,476.9,190.51Zm-33.51,42.56a.74.74,0,0,1-.68,0c-.29-.11-.18-.22.21-.22S443.54,233,443.39,233.07Zm-46.33,66.8a.71.71,0,0,1-.68,0c-.29-.1-.18-.21.22-.21S397.21,299.76,397.06,299.87Zm1.44.36a.71.71,0,0,1-.68,0c-.29-.1-.18-.21.21-.21S398.64,300.12,398.5,300.23Z" transform="translate(-33.37 -26.71)"/><path class="cls-1" d="M394,207.28a143.2,143.2,0,0,0-4.24,16.42c-.64,3.37-1,18.64-.43,18.28.15-.11.18.28.07.89-.28,1.44.76,6.43,2.09,9.84,2.69,7,10.66,15.7,14.36,15.7,2.05,0,4.46-2.52,6.36-6.65s2.41-8,2.33-18.31c0-4.31-.18-6-.82-8.37-2.37-9.05-7.4-18.49-15.19-28.55-1.4-1.83-2.66-3.41-2.77-3.56S394.84,204.77,394,207.28Z" transform="translate(-33.37 -26.71)"/><path class="cls-1" d="M112.63,208c-10.95,14.66-15.91,27.19-15.15,38.32.1,2,.28,5,.36,6.83a21.36,21.36,0,0,0,3,10.52c1.58,2.66,3.16,4.24,4.59,4.59,3.67.94,12.18-7.82,15.16-15.55,1.22-3.12,2.41-8.44,2.08-9.26a7.16,7.16,0,0,1,.18-2.44,58.81,58.81,0,0,0,.36-7.08,61.87,61.87,0,0,0-2-16.34c-1.18-4.92-4.2-14.54-4.52-14.54A39.81,39.81,0,0,0,112.63,208Z" transform="translate(-33.37 -26.71)"/><path class="cls-1" d="M132.85,235.76c-6.79,13.83-9.12,22.7-8.91,33.8.08,3.09.22,5.42.36,5.2s.18.08.08.69c-.69,3.52,2.76,12.71,6.5,17.49,2.73,3.44,5.06,4.31,7.54,2.76s7-8.62,8.58-13.47c.72-2.26,1.65-7.07,1.44-7.43a21.17,21.17,0,0,1,.21-4c.94-9.23-1.83-19.86-8.62-33.11-1.5-3-3.12-5.92-3.52-6.61l-.75-1.25Z" transform="translate(-33.37 -26.71)"/><path class="cls-1" d="M374.94,232.53c-4.45,7.87-8.26,16.74-9.91,23.06-1.4,5.42-1.69,8.4-1.47,15.3.25,8.51,1.4,12.82,4.88,18.56,4.89,8.08,8.37,9,12.75,3.49,3.38-4.35,6.14-11.24,6.5-16.27.07-1.29.29-4,.47-6,.93-10.34-2-21.55-9.56-36.52l-2.15-4.31Z" transform="translate(-33.37 -26.71)"/><path class="cls-1" d="M157.09,255.91c-.07.25-.5,2.8-1,5.67-.68,4.42-.79,6.76-.82,15.45-.07,11.09.25,14.4,1.79,19.93A35.15,35.15,0,0,0,171,316.78c4.31,2.88,6.78,2.52,8.8-1.22a31.49,31.49,0,0,0,2.8-10.16c0-1.08.18-3.92.32-6.29a28.54,28.54,0,0,0-1.47-12.17c-2.37-7.47-7.11-14.58-15.41-23.16C160.79,258.32,157.31,255.26,157.09,255.91Z" transform="translate(-33.37 -26.71)"/><path class="cls-1" d="M349.19,260.76c-10.38,10.2-15.62,17.67-18.46,26.29-1.15,3.59-2,9.37-1.61,11.85.1.9.28,3.27.36,5.24.25,6,2.37,12.46,4.63,13.9,2.76,1.72,7-.39,12.46-6.11a32.53,32.53,0,0,0,7.36-11.88c1.33-3.56,2.41-8.41,2.12-9.41-.14-.4-.07-.68.18-.68s.36-.29.25-.76a29.86,29.86,0,0,1,.36-5.28,62.47,62.47,0,0,0,.32-9.95c-.25-6.85-1.72-18.49-2.33-18.49C354.72,255.48,352.17,257.85,349.19,260.76Z" transform="translate(-33.37 -26.71)"/><path class="cls-1" d="M187.83,289c1.87,4.63,2.48,6.43,2.12,6.21-.21-.14-.36.43-.36,1.51,0,2.8,4.13,11.24,9,18.46,7.73,11.39,19,18.28,29.88,18.28,4.46,0,6-1,6.47-4a1.34,1.34,0,0,1,.54-1c.36-.25.39-1,.07-3.52-2.37-19.57-14.4-30-41.8-36.34-3.49-.83-6.43-1.48-6.54-1.48A5.65,5.65,0,0,0,187.83,289Z" transform="translate(-33.37 -26.71)"/><path class="cls-1" d="M319.2,288.34c-21.87,5-33.75,12.35-39.36,24.53-2.12,4.56-3.95,13.54-3.16,15.41a6,6,0,0,1,.43,1.5c.47,2.7,2.12,3.63,6.43,3.63,11.35,0,22.45-7,30.67-19.5,4-5.93,8-14.19,8.19-16.7.11-1.44.07-1.9-.25-1.72s-.11-.54,1.9-5.5c1-2.44,1.12-2.91.68-2.87C324.56,287.12,322.08,287.69,319.2,288.34Z" transform="translate(-33.37 -26.71)"/><path class="cls-1" d="M171,320.52c-6.93.9-15.62,4.45-24,9.84-3.88,2.48-11.28,7.83-11.32,8.11a7.52,7.52,0,0,0,2.27,1c2.37.86,3.3,1.43,2.33,1.43-.36,0-.68.43-.82,1.08-.51,2.33,1.61,3.77,8.11,5.53,20.54,5.57,35.27,3.34,45.61-7,2.69-2.65,3.63-4.7,2.91-6.25-.32-.75-.22-1.11,1-2.76a17.29,17.29,0,0,0,1.4-2.08,11.35,11.35,0,0,0-2-1.66C188.37,321.85,179.75,319.37,171,320.52Z" transform="translate(-33.37 -26.71)"/><path class="cls-1" d="M331.92,320.63a41,41,0,0,0-16,7l-2.41,1.8,1.44,1.94c1.33,1.76,1.44,2,1,2.87-.75,1.65.15,3.63,2.88,6.32,10.34,10.31,25.06,12.54,45.6,7,6.47-1.76,8.62-3.2,8.12-5.49a1.54,1.54,0,0,0-.83-1.19c-.32-.07.65-.65,2.2-1.26l2.83-1.07-4.52-3.31c-10.92-8-19.75-12.46-28-14.18A37,37,0,0,0,331.92,320.63Z" transform="translate(-33.37 -26.71)"/><path class="cls-1" d="M253.3,328.78a9.85,9.85,0,0,0-5,4.81,7.72,7.72,0,0,0-.39,4c.14,1.33.21,3,.21,3.7-.07,3.41,2.23,6.93,5.21,7.9a8,8,0,0,0,10.49-7,20.69,20.69,0,0,1,.5-3.48,6.23,6.23,0,0,0,0-3.63A8.55,8.55,0,0,0,253.3,328.78Z" transform="translate(-33.37 -26.71)"/><path class="cls-1" d="M214.91,335.78q-14.86,2.48-33.58,19.43l-1.94,1.8,2.66.82c1.47.47,2.41.9,2.09,1-.83.22-1.23,1.73-.72,2.8.57,1.26,2.69,2.19,6.75,3,20.4,4.13,34.76,1.33,44.89-8.73,2.48-2.48,3.95-4.67,4.09-6.14s0-2.37-.43-2.12-.43.25,1.4-2.62a10.35,10.35,0,0,0,1.19-2.23c0-.53-1.76-1.65-5.28-3.41C228.6,335.64,222.17,334.52,214.91,335.78Z" transform="translate(-33.37 -26.71)"/><path class="cls-1" d="M286.52,335.78a35.65,35.65,0,0,0-5.38,1.44,52.79,52.79,0,0,0-9.59,4.77l-.86.65,1.47,2.37c.79,1.33,1.29,2.41,1.11,2.41-.65,0-.39,2.87.4,4.34a23.83,23.83,0,0,0,3.3,4.06c10,10.13,24.49,13,44.93,8.8,4.06-.83,6.17-1.76,6.75-3,.5-1.07.11-2.58-.72-2.76-.32-.11.65-.54,2.19-1l2.8-.87-3.34-2.9c-13-11.25-22.33-16.52-32.39-18.28A28.78,28.78,0,0,0,286.52,335.78Z" transform="translate(-33.37 -26.71)"/><path class="cls-2" d="M239.53,321.13h32.94V378H239.53Z" transform="translate(-33.37 -26.71)"/><path class="cls-3" d="M229.84,248h52.32v73.13H229.84Z" transform="translate(-33.37 -26.71)"/><path class="cls-2" d="M145.71,40H366.29V180.8a110.29,110.29,0,0,1-220.58,0V40Z" transform="translate(-33.37 -26.71)"/><path class="cls-2" d="M188.71,429H323.29a43,43,0,0,1,43,43H145.71a43,43,0,0,1,43-43Z" transform="translate(-33.37 -26.71)"/><path class="cls-4" d="M188.69,378H323.31v51H188.69Z" transform="translate(-33.37 -26.71)"/><path class="cls-5" d="M229.84,268.42a7,7,0,0,1-2.55-.48c-52.61-20.61-58.18-60.62-58.4-62.32a7,7,0,0,1,13.89-1.77c.2,1.47,5.2,33.65,49.6,51.05a7,7,0,0,1-2.56,13.52Z" transform="translate(-33.37 -26.71)"/><path class="cls-2" d="M146.34,192.67a113.76,113.76,0,0,1-42.07-99.94h41.42V70.25H94.48a11.24,11.24,0,0,0-11,8.9,142,142,0,0,0,19.73,99.35,141.48,141.48,0,0,0,51.94,47,109.49,109.49,0,0,1-8.82-32.84Z" transform="translate(-33.37 -26.71)"/><path class="cls-3" d="M365.66,192.67a113.78,113.78,0,0,0,42.07-99.94H366.31V70.25h51.2a11.23,11.23,0,0,1,11,8.9,142,142,0,0,1-19.73,99.35,141.53,141.53,0,0,1-51.93,47,109.49,109.49,0,0,0,8.82-32.84Z" transform="translate(-33.37 -26.71)"/><path class="cls-3" d="M256,291.08A110.28,110.28,0,0,0,366.29,180.8V40H256Z" transform="translate(-33.37 -26.71)"/><path class="cls-3" d="M256,321.13h16.47V378H256Z" transform="translate(-33.37 -26.71)"/><path class="cls-6" d="M256,378h67.31v51H256Z" transform="translate(-33.37 -26.71)"/><path class="cls-3" d="M256,429v43H366.29a43,43,0,0,0-43-43Z" transform="translate(-33.37 -26.71)"/></svg>