<svg id="Layer_1" data-name="Layer 1" xmlns="http://www.w3.org/2000/svg" viewBox="0 0 1000 777.8"><defs><style>.cls-1{fill:#fff;}</style></defs><title>playstation-logo</title><path class="cls-1" d="M538.4,888.8,385.8,823.4V111s331.7,55.7,377.4,193.9-25.5,227.6-50.5,230.2c-69.7,7.3-96.2-36.4-96.2-36.4v-223l-75.7-31.5-2.4,644.6Zm39.7-98.1v83.6S937.5,758,990.3,713.2,866.5,556.9,771.6,578.7c0,0-100.9,4.9-192.3,44.8-.9.4,0,75.1,0,75.1l232-54.5L893,680.5,578.1,790.7Zm-230.8-6.1s-46.9,24.2-151.4,23S-1.2,777.3,0,714.4s173.1-132,346.1-161.1v88.4L162.2,690.2s-31.5,40,10.8,41.2c96.2,2.7,175.4-23,175.4-23l-1.1,76.2Z" transform="translate(0.01 -111)"/></svg>