<svg id="Layer_1" data-name="Layer 1" xmlns="http://www.w3.org/2000/svg" viewBox="0 0 875.1 515.3"><defs><style>.cls-1{fill:#fff;}</style></defs><title>steam-logo</title><path class="cls-1" d="M872,388.5a81,81,0,1,1-81-80.7C835.8,307.9,872,344,872,388.5ZM839.4,524.8l-98.1,83.6a124.79,124.79,0,0,1,1.8,20.4c0,71.1-57.9,128.8-129.3,128.8a129.09,129.09,0,0,1-126-100.3L245.4,575.4a113.89,113.89,0,0,1-68.9,23.2c-63,0-114.1-50.9-114.1-113.7s51.1-113.6,114.1-113.6a114,114,0,0,1,111.1,88l234.1,79.1a128.89,128.89,0,0,1,89.1-38.2L646,393.9c-.1-2.1-.3-4.2-.3-6.3,0-80.3,65.3-145.3,145.9-145.3s145.9,65.1,145.9,145.3c0,63.6-41,117.5-98.1,137.2ZM248.3,445.9a79.78,79.78,0,1,0-69.8,118.2,78.9,78.9,0,0,0,23.4-3.5l-38-12.8a62.62,62.62,0,1,1,59.3-110.3l25.1,8.4ZM677.8,388c0,62.3,50.7,112.9,113.3,112.9S904.5,450.3,904.5,388,853.7,275.1,791.1,275.1,677.8,325.6,677.8,388ZM680,639.8c0-47.5-38.6-85.9-86.3-85.9a83.07,83.07,0,0,0-19.4,2.3l48.2,16.3a62.62,62.62,0,1,1-59.3,110.3l-52-17.6A86.37,86.37,0,0,0,680,639.8Z" transform="translate(-62.4 -242.3)"/></svg>