<svg id="Layer_1" data-name="Layer 1" xmlns="http://www.w3.org/2000/svg" viewBox="0 0 497.97 498.03"><defs><style>.cls-1{fill:#fff;}</style></defs><title>xbox-logo</title><path class="cls-1" d="M-74.56-77.64l-.24.21v0A248.94,248.94,0,0,0-98,250.58a1.11,1.11,0,0,0,1.34.42,1,1,0,0,0,.29-1.28c-19-58.7,78-201,128.17-260.6a1.31,1.31,0,0,0,.37-.73,1.14,1.14,0,0,0-.47-.82C-52.6-96.36-75.11-77.17-74.8-77.43m349.64-.21.24.21v0a249,249,0,0,1,23.14,328,1.1,1.1,0,0,1-1.34.42,1,1,0,0,1-.28-1.28c19-58.7-78-201.07-128.08-260.73a1.2,1.2,0,0,1-.37-.71,1.05,1.05,0,0,1,.48-.84C253-96.49,275.34-77.17,275.05-77.43M100.14-149.24c50.24,0,91.58,13.77,129.7,36.44a.93.93,0,0,1,.41,1.23,1,1,0,0,1-1.2.42c-48.2-10.42-121.48,31.23-128.39,35.39a.87.87,0,0,1-.52.21.9.9,0,0,1-.55-.21c-18.38-10.55-86.11-46-128.76-35.13a1,1,0,0,1-1.2-.44,1,1,0,0,1,.42-1.24c38.12-22.9,80-36.67,130.09-36.67m0,199.7a1.35,1.35,0,0,1,.78.39C175.43,107.51,303,247.57,264,287.18l.05-.05,0,.05H264a248.85,248.85,0,0,1-327.8,0l-.05-.05.05.05C-102.65,247.57,24.84,107.51,99.27,50.85a1.62,1.62,0,0,1,.87-.39" transform="translate(148.86 149.24)"/></svg>