<svg id="Layer_1" data-name="Layer 1" xmlns="http://www.w3.org/2000/svg" viewBox="0 0 522.71 280.41"><defs><style>.cls-1{fill:#fff;}</style></defs><title>zbc</title><polygon class="cls-1" points="252.95 200.79 252.95 200.79 252.95 200.79 252.95 200.79"/><path class="cls-1" d="M299.13,360c6.3-6.65,12.82-13.1,19-19.89C355.25,299,397.35,263.61,442.72,232c10.75-7.49,10.95-9.79,7.7-22.82-2.16-8.65-3.41-10.06-14.88-11-1.16-.09-2.32-.11-3.49-.16l-40.81,0h0a8.73,8.73,0,0,1-6.62-1.74L399.49,195c-24.57-2-48.87.8-73.18,3.35-1,.11-3.08.27-2.37,1.61,1.82,3.45-1.09,2.29-2.19,2.44-7.75,1-15.55,1.72-23.26,3-10.49,1.73-21.11,2.82-31.33,6-5,1.55-9.14,4.46-9.21,9.88,0,3.32,2.65,6.57-1.38,9.49-.76.54.84,2.68,1.82,3.79,3.38,3.82,7.9,4.53,12.7,4.68,26,.76,51.7-3.63,77.53-5.63,9.13-.71,18.24-1.64,27.41-1.24,1.32.06,3-.08,3.42,1.41.45,1.79-1.22,2.67-2.62,3.12-2.18.71-4.47,1.1-7.14,1.72,4.47,3,1.07,4.7-.81,6.32a833.52,833.52,0,0,0-89.25,89.32c-12.4,14.54-26.59,27.6-36.46,44.24-1.62,2.74-3.56,5.4-3.78,8.59-.33,4.68-.67,9.23-3.29,13.34-1.52,2.4-.13,4.6,1.38,6.37,2,2.33,2.43,4.25.47,7-2.63,3.7-1.8,5.24,2.78,5.72a45.54,45.54,0,0,0,16.87-1.14c34.62-9.51,69.45-18.21,104.3-26.83,16-3.95,31.91-8.07,48-11.38,2.46-.51,6.48-1.37,6.18-3.26-.79-5.07,2.82-4.66,5.41-5.78a6.58,6.58,0,0,0,4.19-6.74c-.18-2.86-2.09-4.66-5.07-5.43a30.59,30.59,0,0,0-5.91-.77c-6.8-.46-13.67-.45-20.38-1.53-16.78-2.69-33.6-.53-50.27.13a102.91,102.91,0,0,0-40.32,10.53,31.08,31.08,0,0,1-3.7,1.49,3.44,3.44,0,0,1-4-1.15,3,3,0,0,1,0-3.74A24,24,0,0,1,299.13,360Zm47.07-160,.18-.5h12.75v.5Z" transform="translate(-235.44 -166.2)"/><path class="cls-1" d="M754.38,220.07c-1.21-.51-1.32-2.16-1.37-3.56-.29-7.4-2.71-10.39-10-12.5-2.71-.79-5.74-1.08-8.06-2.52-10.73-6.68-20.83-5.17-30.76,1.61-.82.56-1.73,1-2.58,1.52-24.39,15.32-41.2,37.55-55.4,61.87-12.08,20.7-17,43.91-21.22,67.23A78,78,0,0,0,625,359c1.64-4.1.68-8.77,2.92-12.81,2,1.11,1.84,2.94,2,4.47.51,6,1.12,11.94,1.22,17.91.27,16.67,5.93,30.82,18.49,42.12,5.45,4.9,11.63,7.23,18.76,6.19a110.41,110.41,0,0,1,15.93-.73c27.29,0,46.51-14.76,62.69-34.78,1.95-2.42,3.15-5.47,4.48-8.33,1.23-2.67.27-4.86-2.08-6.49-4.32-3-14.31-2-17.36,2.31-11.94,16.74-29.51,20.45-48.34,21.15-6.4.24-10.94-3-12.75-9.17-3.54-12.07-5.49-24.51-3.1-37A235.34,235.34,0,0,1,693,274.82a125.85,125.85,0,0,1,14-20.6c1-1.15,2-2.42,3.75-2s2,1.95,2.31,3.48a37.67,37.67,0,0,1,.89,10.41,78.79,78.79,0,0,0,6.13,36.55c3.49,8.35,9.91,11.89,18.63,9.43,7.32-2.07,9.13-5,7.54-12.45-3.43-16.11-3.25-31.63,5.84-46.25,4.5-7.23,5.32-15.69,5.84-24C758.2,225.8,758.91,222,754.38,220.07Zm-28.46,68.7c-1.33-2.78-.68-5.56-.83-9.59C727.77,283.09,727.46,285.9,725.92,288.77Z" transform="translate(-235.44 -166.2)"/><path class="cls-1" d="M612.81,300.43c-8.11-7-18-10.61-27.94-14-14.32-4.87-29.4-5.34-44.22-7.27-1.66-.22-3.57-.09-4.27-1.91-.82-2.11,1.21-2.86,2.47-3.79,11-8.12,21.37-16.94,32.17-25.23,18.65-14.34,29.93-32.57,33.56-55.76,1.12-7.16.33-13.58-6.15-17.62-8.71-5.43-18.07-8.78-28.71-8.67-18.38.2-35.89,4.61-53.32,9.69-8.13,2.37-16.59,3.79-23.93,8.38-8.75,5.48-17,11.62-25.29,17.78-7.43,5.55-9.08,14-11.45,22.13a2.53,2.53,0,0,0,.32,1.89c3.44,5.11,6.76,10.4,12.95,12.66,1.5.55,4,1.7,4.55.06,1.48-4.63,6.9-5,8.74-9.08.47-1,1.37-2.14,2.66-1.88,1.46.3,2.06,1.59,2.16,3,.68,10.28,2.6,20.62,1.43,30.85-2.21,19.32-1.31,38.52.43,57.75h0c.26-3.92,2.56-5.35,6.25-5.28,3.93.08,7.87.07,11.8,0,3.69-.06,6,1.38,6.23,5.3,1.73-13.18,3-13.66,16.72-14.21a144.62,144.62,0,0,1,43,4.89,46,46,0,0,1,14.15,6,7.08,7.08,0,0,1,5.45-2h21.39c2.63,0,5,.62,6.28,3.19h0C621.48,310.11,617.9,304.81,612.81,300.43ZM504.47,246.31c-2.42-7.9-.37-15.6,1-23.33C507.7,230.88,505.86,238.58,504.47,246.31Zm23.88-8.58c-2.62,2-4,1.68-4.77-1.67a48.15,48.15,0,0,1-.77-13.91,13.69,13.69,0,0,0,.14-3c-1.7-10.38,4.35-15,13-18,8.25-2.86,16.6-5,25.36-4.85,2,0,4.69-.29,5.62,2.22.87,2.35-.93,4.1-2.3,5.74C554,217,541.52,227.75,528.35,237.73Z" transform="translate(-235.44 -166.2)"/><path class="cls-1" d="M528.16,409.62c.1.58.17,1.15.24,1.72C528.34,410.77,528.26,410.2,528.16,409.62Z" transform="translate(-235.44 -166.2)"/><path class="cls-1" d="M591.59,316.61a5.41,5.41,0,0,0-3.64.85c1.69,2.89,1.26,5.45-1.73,8.23a39.36,39.36,0,0,1-10.7,7.08c-18.92,8.64-37.8,17.37-56.74,26a37.28,37.28,0,0,1-5.73,1.6c-1.41,0-1.45-1-1.43-2,0-.12,0-.24,0-.36-1.74-4.12-.1-8.5.24-12.77.91-8.17-.55-16.46,1.13-24.59-2.63.08-3.56-2.67-5.8-3.42-4.89-1.64-9.56-1.61-14.18.74-1.29.66-2.38,1.86-4,1.5l.09,24.2c-.16,7.78.83,15.6-.66,23.34h0c-8.31,6.14-17.41,11.07-26.57,15.62-8.56,4.25-11.79,11.69-15.13,19.47-1.26,2.94-.41,5,2.72,6.3,5.44,2.33,10.73,3,16.4.63,3.81-1.61,7.89-2.56,11.83-3.87,2.53-.84,3.79-.22,3.69,2.63a46.85,46.85,0,0,0,.12,6.49c.23,2.26.35,5.46,3.23,5.31,2.48-.13,2.4-3.19,2.39-5.33a31.26,31.26,0,0,0-.45-7.45c-1.14-4.52,1.64-5.57,4.95-6.14,4.1-.71,2.05,2.72,2.66,4.31.36.94.43,2.17,1.54,2.31a1.84,1.84,0,0,0,2-2.31c-1.34-7.18,4-7.9,8.74-9.32,5.47-1.64,5.45-1.7,5.89,4.16a16.84,16.84,0,0,0,.3,2.47c.23.93.43,2.16,1.75,2,.87-.13,1.19-1.11,1.25-2,.17-2.32.34-4.65.37-7,0-2.6,1.81-3.32,3.85-3.8,2.37-.55,2.77,1.25,3.24,2.85s.79,3.2,1.17,4.81a35.94,35.94,0,0,1,0,15.82c-.22,4-.17,8-.71,11.9a49.13,49.13,0,0,0,.46,16.76c.27,1.33.27,2.89,1.95,3s2-1.44,2-2.82l.81-13.78c-1.5-6.76-.52-13.61-.72-20.42h0c0-5.65.11-11.3.08-16.95,0-2.46.21-4.53,3.22-5.16s3.42,1.84,4.64,3.5c.92,1.26.72,4.23,3.39,3.17,4.69-1.87,4.7,1,4.56,4.13-.22,5.14-1.36,10.23-.93,15.43.1,1.22.23,2.64,1.49,2.85,1.68.27,2.19-1.41,2.37-2.62s-.34-2.59-.4-3.89q-.3-7.67-.5-15.34c-.05-2.24,1.22-3.36,3.38-3.47a3.24,3.24,0,0,1,3.44,3,32.4,32.4,0,0,1,.65,9.4,68.51,68.51,0,0,0-.21,13.43c.19,2-.11,6,2.21,5.85,3.22-.29,1.86-4,1.69-6.26-.71-9.59-1.48-19.18-1-28.81.17-3.14.8-5.21,4.39-2.68,2.19,1.55,4.31,1.36,6.34-.43,1.07-.95,2-2.82,3.63-2.06s1.38,2.84,1.44,4.49c.28,7.49-.83,14.87-1.64,22.29a100.36,100.36,0,0,0-.14,16.45c.12,2.08.82,5,3.84,5,2.59,0,2.94-2.47,3-4.43a335,335,0,0,0-1.64-40.68c-.48-4.62-1.07-9.25.57-13.78,1.14-3.12,4.13-4,6.73-4.16,2.05-.16,2,2.57,2.4,4.3a64.66,64.66,0,0,1,2,17.74c-.06,1.65-.48,3.5,1.12,5.56,1.69-4.91.08-9.06,0-13.23-.11-4-1.55-8.6,2.85-11.89,3.47,6,1,12.67,3,18.55a11.72,11.72,0,0,0,.65-8.35,32.76,32.76,0,0,1-.27-12.86c.21-1.5.9-3.09,2.68-3.16,2.13-.1,2.2,2,2.28,3.27.24,3.75.09,7.52.09,11.29h1.58c0-3.56,0-7.11,0-10.67,0-1.71,0-3.75,2.25-3.73,2,0,2.56,2,2.61,3.66.13,4.16,0,8.33,0,12.49v19.73h0c.13,1.38-.44,3.48,1.89,3.17,1.61-.21,2.16-2,2.09-3.53-.27-6.27-.08-12.65-1.19-18.78a48.73,48.73,0,0,1,1.08-21.55c2.2-8.26,5.38-16.26,7.51-24.54,1.51-5.83.62-12.14,2.81-17.93C610.68,316.26,601.13,316.79,591.59,316.61Zm-90.35,29.53h0c-1.84-.42-.76-2.08-1.31-3.05a38.7,38.7,0,0,1,0-16.9l.32-3.59v-3.83C502.52,322.92,503,338.62,501.24,346.14Z" transform="translate(-235.44 -166.2)"/><path class="cls-1" d="M493,318c4.62-2.35,9.29-2.38,14.18-.74,2.24.75,3.17,3.5,5.8,3.42.08-.38.16-.77.25-1.16h0c-.24-3.92-2.54-5.36-6.23-5.3-3.93.07-7.87.08-11.8,0-3.69-.07-6,1.36-6.25,5.28h0C490.64,319.81,491.73,318.61,493,318Z" transform="translate(-235.44 -166.2)"/><path class="cls-1" d="M613.92,314.2H592.53a7.08,7.08,0,0,0-5.45,2,14.44,14.44,0,0,1,.87,1.27,5.41,5.41,0,0,1,3.64-.85c9.54.18,19.09-.35,28.61.78h0C618.87,314.82,616.55,314.2,613.92,314.2Z" transform="translate(-235.44 -166.2)"/><path class="cls-1" d="M432.05,198.06a205.26,205.26,0,0,0-40.8,0Q411.65,197.23,432.05,198.06Z" transform="translate(-235.44 -166.2)"/><path class="cls-1" d="M432.05,198.06q-20.4-.85-40.8,0h0Z" transform="translate(-235.44 -166.2)"/><path class="cls-1" d="M488.4,367c.77-7.76-.46-15.58.66-23.34-1.08,7.76-.45,15.56-.66,23.34Z" transform="translate(-235.44 -166.2)"/><path class="cls-1" d="M488.4,367c1.49-7.74.5-15.56.66-23.34C487.94,351.41,489.17,359.23,488.4,367Z" transform="translate(-235.44 -166.2)"/><polygon class="cls-1" points="252.95 200.79 252.95 200.79 252.95 200.79 252.95 200.79"/><path class="cls-1" d="M528.88,430c0-6.23.31-12.47-.48-18.67C529.1,417.55,528.08,423.81,528.88,430Z" transform="translate(-235.44 -166.2)"/><path class="cls-1" d="M528.16,409.59h0v0Z" transform="translate(-235.44 -166.2)"/><path class="cls-1" d="M528.88,430c-.8-6.2.22-12.46-.48-18.67-.07-.57-.14-1.14-.24-1.72v0C528.36,416.4,527.38,423.25,528.88,430Z" transform="translate(-235.44 -166.2)"/><path class="cls-1" d="M606,380.81a60.82,60.82,0,0,0,0,19.74h0A92.29,92.29,0,0,1,606,380.81Z" transform="translate(-235.44 -166.2)"/><path class="cls-1" d="M606,400.54V380.81A92.29,92.29,0,0,0,606,400.54Z" transform="translate(-235.44 -166.2)"/><path class="cls-1" d="M524.31,399.17l0,15.82A88.93,88.93,0,0,0,524.31,399.17Z" transform="translate(-235.44 -166.2)"/><path class="cls-1" d="M524.31,399.17a88.93,88.93,0,0,1,0,15.82A35.94,35.94,0,0,0,524.31,399.17Z" transform="translate(-235.44 -166.2)"/><path class="cls-1" d="M346.38,199.42l-.18.5h12.93v-.5Z" transform="translate(-235.44 -166.2)"/><path class="cls-1" d="M514.69,320.5a3.55,3.55,0,0,0,1.8-2.46c2.68-8.36,4.55-10.16,13.4-10.19,18.52-.06,36.79,1.73,54,9.52a10.62,10.62,0,0,0,1.95.88c0-.18,0-.36,0-.54,0-.58.83-1,1.24-1.52a46,46,0,0,0-14.15-6,144.62,144.62,0,0,0-43-4.89c-13.76.55-15,1-16.72,14.21h0A3.53,3.53,0,0,1,514.69,320.5Z" transform="translate(-235.44 -166.2)"/><path class="cls-1" d="M585.81,318.25c-.34,6.22-4.81,9.14-9.76,11.4-18,8.22-35.84,16.62-53.79,24.87-1.93.89-3.94,1.94-6.17.66-2.84-3.53-.91-7.69-1.48-11.52.07-6.39-.24-12.81.61-19.19.19-1.45.31-2.9-.53-4a3.06,3.06,0,0,1-1.69.13h0c-1.68,8.13-.22,16.42-1.13,24.59.67,5-1.48,10.27,1.18,15.14a9.86,9.86,0,0,1-1.42-2.37c0,.12,0,.24,0,.36,0,1,0,2,1.43,2a37.28,37.28,0,0,0,5.73-1.6c18.94-8.62,37.82-17.35,56.74-26a39.36,39.36,0,0,0,10.7-7.08c3-2.78,3.42-5.34,1.73-8.23a3,3,0,0,0-.42.38A1.94,1.94,0,0,1,585.81,318.25Z" transform="translate(-235.44 -166.2)"/><path class="cls-1" d="M585.84,317.71c0,.18,0,.36,0,.54a1.94,1.94,0,0,0,1.72-.41,3,3,0,0,1,.42-.38,14.44,14.44,0,0,0-.87-1.27C586.67,316.71,585.85,317.13,585.84,317.71Z" transform="translate(-235.44 -166.2)"/><path class="cls-1" d="M513,320.63h0a3.06,3.06,0,0,0,1.69-.13,3.53,3.53,0,0,0-1.44-1h0C513.16,319.86,513.08,320.25,513,320.63Z" transform="translate(-235.44 -166.2)"/><path class="cls-1" d="M500.26,322.6c2.19,5.59.85,11.4,1,17.12.07,2.14,0,4.28,0,6.42h0c1.72-7.52,1.28-23.22-1-27.37Z" transform="translate(-235.44 -166.2)"/><path class="cls-1" d="M500.42,326.49c.06-1.32.39-2.61-.16-3.89l-.32,3.59q0,8.44,0,16.9c.55,1-.53,2.63,1.31,3.05h0C499.27,339.66,500.1,333.06,500.42,326.49Z" transform="translate(-235.44 -166.2)"/><path class="cls-1" d="M499.94,326.19a38.7,38.7,0,0,0,0,16.9A91.74,91.74,0,0,1,499.94,326.19Z" transform="translate(-235.44 -166.2)"/><path class="cls-1" d="M499.93,343.09q0-8.46,0-16.9A91.74,91.74,0,0,0,499.93,343.09Z" transform="translate(-235.44 -166.2)"/><path class="cls-1" d="M511.87,345.22c-.34,4.27-2,8.65-.24,12.77C511.72,353.73,511.34,349.47,511.87,345.22Z" transform="translate(-235.44 -166.2)"/><path class="cls-1" d="M511.87,345.22c-.53,4.25-.15,8.51-.24,12.77a9.86,9.86,0,0,0,1.42,2.37C510.39,355.49,512.54,350.24,511.87,345.22Z" transform="translate(-235.44 -166.2)"/></svg>