<svg id="Layer_1" data-name="Layer 1" xmlns="http://www.w3.org/2000/svg" viewBox="0 0 12.5 11.96"><defs><style>.cls-1{fill:#fff;}</style></defs><path class="cls-1" d="M522.87,349.59H523l0,.13v0l-.13,0h0l0-.17Zm5-10q.12,0,1.08.18a1.22,1.22,0,0,1,.47-.18,1.89,1.89,0,0,1,.31.18l0,0a2.29,2.29,0,0,1,1-.18H531a1.46,1.46,0,0,1,.79.24l.16,0a1.56,1.56,0,0,1,.82-.18.75.75,0,0,1,.65.26l.08,0c0-.07.12-.13.28-.2a.13.13,0,0,0,.08,0v.11l-.06.07v0c.11,0,.16,0,.16.08v.05c-.06,0-.11.05-.16.16l.26,0a10.17,10.17,0,0,1,1.24-.15l0,0v0a3.18,3.18,0,0,1-.8.24,3.62,3.62,0,0,1-1,.28q0,.18-.39.18l-.18.28h0a.51.51,0,0,1,.36-.2,0,0,0,0,1,0,.05v.1a2.91,2.91,0,0,0-.91,1,3.77,3.77,0,0,1-.92,1.29,1.33,1.33,0,0,1-.41.21,4.49,4.49,0,0,1-.62.59c-.19.5-.42.75-.7.75s-.31.23-.57.69a8.13,8.13,0,0,0-.69.8,4.42,4.42,0,0,1-1.16.93,1.49,1.49,0,0,0-.55,1c-.29.29-.43.47-.43.54h.15a2.59,2.59,0,0,0,.57-.21h.08a1.19,1.19,0,0,1,.36.19,6.18,6.18,0,0,1,1.65-.34h.28a.6.6,0,0,1,.47.18.36.36,0,0,0,.2.06h.08a4.24,4.24,0,0,0,.75-.26l.15,0a1.68,1.68,0,0,1,.39.07l.23,0c.05,0,.15.07.28.21a3.31,3.31,0,0,0,.75.15l0,0v.05l-.21.13v0a14.88,14.88,0,0,0,1.5.54l0,.05v0s0,0-.08,0a11.35,11.35,0,0,0-1.75-.28h-.07a.31.31,0,0,1-.26.15h-.29c-.27,0-.41.08-.41.13a.2.2,0,0,1,0,.11.92.92,0,0,1-.22,0h-.26l-.37,0a5.83,5.83,0,0,1-1,.13c0,.17-.45.26-1.34.26-.55.05-.86.14-.93.25a6.16,6.16,0,0,1-.88.08,1.06,1.06,0,0,1-.57.18h0a2.41,2.41,0,0,1-.44-.2c-.08,0-.18-.06-.31-.19a1,1,0,0,1-.31,0c0-.06,0-.1-.13-.13-.37.4-.61.62-.72.64l0,0a2.61,2.61,0,0,1,.48-.65l.06-.1s-.08-.07-.08-.16v-.05l0-.13-.12-.05a.12.12,0,0,1-.13.13h0l-.08-.28a.38.38,0,0,0,.18-.18,1.43,1.43,0,0,0-.34-.06h-.38l0-.13a7.3,7.3,0,0,1,1-.18c.61-.15.91-.32.91-.51a4,4,0,0,0,.44-.83h0l-.13,0v-.1a11.19,11.19,0,0,0,.67-.91,8,8,0,0,0,.77-.92s.08-.06.16-.16v-.26c.18-.21.38-.43.59-.64,0-.07.17-.22.49-.47a6.72,6.72,0,0,1,.73-.82,1.34,1.34,0,0,1,.46-.69s.09-.1.15-.26.33-.26.47-.6c0,0,.13-.18.38-.41,0,0,0,0,.06,0v0c-.07,0-.1,0-.1-.07v0a.28.28,0,0,1,0-.15h-.23c-.48,0-.73.08-.75.13a.32.32,0,0,1-.22.07h-.44a3.63,3.63,0,0,1-.5.18h0a.87.87,0,0,1-.36-.2.42.42,0,0,1-.31-.21c-.39-.14-.59-.3-.59-.49s-.06-.26-.18-.29-.11,0-.11-.07v-.08c.09,0,.13,0,.13-.07s-.21-.1-.64-.16l0-.05V340a4.13,4.13,0,0,1,.87-.1A2.29,2.29,0,0,1,527.84,339.59Zm-4.38,10.52h.31l0,.18v0a.25.25,0,0,1-.23.16h0s-.09-.07-.11-.21A.37.37,0,0,0,523.46,350.11Zm2.11-9.93h.13l0,.13v.05l-.12,0h-.08v-.15A0,0,0,0,1,525.57,340.18Zm0,7.58v0h.06v0Zm.78-7a.18.18,0,0,1,.15.18v0c-.08.12-.16.18-.25.18s-.18-.13-.18-.21S526.16,340.72,526.32,340.72Zm1.8-1.06v0l.08,0v0l-.05,0Zm4.88-.53h.15a.29.29,0,0,1,.13.22.38.38,0,0,1-.28.19c-.06,0-.1-.12-.11-.34Zm.9.12h.18l0,.13-.1.08h0s-.06,0-.07-.13A.45.45,0,0,0,533.9,339.25Z" transform="translate(-522.81 -339.13)"/></svg>